<?xml version="1.0" encoding="utf-8"?>
<!-- Uploaded to: SVG Repo, www.svgrepo.com, Generator: SVG Repo Mixer Tools -->
<svg width="800px" height="800px" viewBox="0 0 1024 1024" class="icon"  version="1.1" xmlns="http://www.w3.org/2000/svg"><path d="M890.1 881H212.8c-12.8 0-23.2-10.4-23.2-23.2v-74.2h700.5V881zM927.1 664.6H162.8c-10.6 0-19.2-8.6-19.2-19.2v-32.5H927l0.1 51.7z" fill="#CCCCCC" /><path d="M910.2 577.9H114c-27 0-49 22-49 49v118c0 24.6 18.3 45.1 42 48.5v113.4c0 29.9 24.3 54.1 54.1 54.1H863c29.9 0 54.1-24.3 54.1-54.1V793.3c23.7-3.4 42-23.8 42-48.5v-118c0.1-26.9-21.9-48.9-48.9-48.9z m-33 328.9c0 7.8-6.3 14.1-14.1 14.1H161.2c-7.8 0-14.1-6.3-14.1-14.1V794.9h730.1v111.9z m42-161.9c0 4.9-4 9-9 9H114c-4.9 0-9-4-9-9v-118c0-4.9 4-9 9-9h796.2c4.9 0 9 4 9 9v118zM307.2 513.3h411.5c11.2 0 20.3-9.5 20.3-21.1l-67.7-198c0-11.6-9.1-21.1-20.3-21.1H524.7c52.7-6.3 93.6-51.1 93.6-105.4 0-58.7-47.5-106.2-106.2-106.2S405.9 109 405.9 167.7c0 54.4 40.9 99.2 93.6 105.4H374.9c-11.2 0-20.3 9.5-20.3 21.1l-67.7 198c0 11.6 9.1 21.1 20.3 21.1zM480 314.4c0-7.2 7.1-13 15.7-13h30.5c8.6 0 15.7 5.9 15.7 13l-13.1 31.1 13.1 99.7c0 7.2-20.1 45.5-28.8 45.5h-4.4c-8.6 0-28.8-38.4-28.8-45.5L493.1 345 480 314.4z" fill="#666666" /><path d="M670.4 664.6H373.2c-5.5 0-10 4.5-10 10v20c0 5.5 4.5 10 10 10h297.2c5.5 0 10-4.5 10-10v-20c0-5.5-4.5-10-10-10z" fill="#666666" /></svg>