<?xml version="1.0" encoding="UTF-8" standalone="no"?>
<!-- Uploaded to: SVG Repo, www.svgrepo.com, Generator: SVG Repo Mixer Tools -->
<svg width="800px" height="800px" viewBox="0 0 64 64" version="1.1" xmlns="http://www.w3.org/2000/svg" xmlns:xlink="http://www.w3.org/1999/xlink">
    
    <title>clo-server</title>
    <desc>Created with Sketch.</desc>
    <defs>

</defs>
    <g id="64px-Glyph" stroke="none" stroke-width="1" fill="none" fill-rule="evenodd">
        <g id="clo-server" fill="#000000">
            <path d="M53,14 L41,14 C40.447,14 40,13.553 40,13 C40,12.447 40.447,12 41,12 L53,12 C53.553,12 54,12.447 54,13 C54,13.553 53.553,14 53,14 M13,16 C11.346,16 10,14.654 10,13 C10,11.346 11.346,10 13,10 C14.654,10 16,11.346 16,13 C16,14.654 14.654,16 13,16 M53,6 L11,6 C7.141,6 4,9.141 4,13 C4,16.859 7.141,20 11,20 L53,20 C56.859,20 60,16.859 60,13 C60,9.141 56.859,6 53,6" id="Fill-189">

</path>
            <path d="M53,32 L41,32 C40.447,32 40,31.553 40,31 C40,30.447 40.447,30 41,30 L53,30 C53.553,30 54,30.447 54,31 C54,31.553 53.553,32 53,32 M13,34 C11.346,34 10,32.654 10,31 C10,29.346 11.346,28 13,28 C14.654,28 16,29.346 16,31 C16,32.654 14.654,34 13,34 M53,24 L11,24 C7.141,24 4,27.141 4,31 C4,34.859 7.141,38 11,38 L53,38 C56.859,38 60,34.859 60,31 C60,27.141 56.859,24 53,24" id="Fill-190">

</path>
            <path d="M53,50 L41,50 C40.447,50 40,49.553 40,49 C40,48.447 40.447,48 41,48 L53,48 C53.553,48 54,48.447 54,49 C54,49.553 53.553,50 53,50 M13,52 C11.346,52 10,50.654 10,49 C10,47.346 11.346,46 13,46 C14.654,46 16,47.346 16,49 C16,50.654 14.654,52 13,52 M53,42 L11,42 C7.141,42 4,45.141 4,49 C4,52.859 7.141,56 11,56 L53,56 C56.859,56 60,52.859 60,49 C60,45.141 56.859,42 53,42" id="Fill-191">

</path>
        </g>
    </g>
</svg>