<svg xmlns="http://www.w3.org/2000/svg" viewBox="0 0 400 300" width="406" height="306" class="illustration styles_illustrationTablet__1DWOa"><g id="_578_team_meeting_flatline" data-name="#578_team_meeting_flatline"><path d="M109.13,202.83s-32,25.61-34.36,28,34.45,42.12,39.63,40S133,252,133,252Z" fill="#231f20"></path><path d="M114,271.43c-6.23,0-32.08-27.63-38.23-36.84-1.55-2.32-2-3.51-1.37-4.1,2.36-2.39,33.1-27,34.41-28.05a.53.53,0,0,1,.42-.1.55.55,0,0,1,.34.27l23.82,49.18a.49.49,0,0,1-.06.52c-.55.69-13.52,16.9-18.76,19A1.42,1.42,0,0,1,114,271.43ZM109,203.61c-4,3.24-31.67,25.39-33.83,27.58-.49,2.13,17.16,22.42,29.72,33.27,7.12,6.15,9,6.11,9.37,5.94,4.66-1.88,16.48-16.39,18.15-18.46Z" fill="#231f20"></path><path d="M297.12,91.7c.47-.21,19-19.33,19.43-24.38S275.69,27,270.67,29.15,248.3,58.5,248.3,58.5l48,31.68" fill="#231f20"></path><path d="M297.12,92.2a.5.5,0,0,1-.27-.92c1-.81,18.78-19.26,19.2-24,.27-2.94-17.79-20-32.74-30.85-9.74-7.1-12-7-12.44-6.82-3.79,1.6-15.81,19.26-21.88,28.74L296.6,89.76a.51.51,0,0,1,.14.7.5.5,0,0,1-.69.14L248,58.91a.5.5,0,0,1-.14-.68c.71-1.12,17.5-27.39,22.6-29.54.61-.27,2.46-1.05,13.42,6.93,13.34,9.73,33.5,27.82,33.15,31.75-.49,5.44-19.55,24.71-19.73,24.79A.51.51,0,0,1,297.12,92.2Z" fill="#231f20"></path><circle cx="199.72" cy="153.42" r="113.69" fill="#fff"></circle><path d="M199.72,267.61A114.19,114.19,0,1,1,313.91,153.42,114.32,114.32,0,0,1,199.72,267.61Zm0-227.38A113.19,113.19,0,1,0,312.91,153.42,113.32,113.32,0,0,0,199.72,40.23Z" fill="#231f20"></path><rect x="147.74" y="82.5" width="33.85" height="23.54" transform="matrix(0.86, 0.52, -0.52, 0.86, 72.69, -71.68)" fill="#fff"></rect><path d="M173,113.61a.59.59,0,0,1-.26-.07L143.83,96a.5.5,0,0,1-.17-.69l12.2-20.14a.5.5,0,0,1,.68-.17l29,17.54a.52.52,0,0,1,.23.31.5.5,0,0,1-.06.38l-12.2,20.14a.5.5,0,0,1-.31.22ZM144.77,95.4l28.09,17,11.69-19.28-28.1-17Z" fill="#231f20"></path><rect x="135.53" y="102.63" width="33.85" height="23.54" transform="translate(81.36 -62.45) rotate(31.21)" fill="#fff"></rect><path d="M160.83,133.74a.48.48,0,0,1-.26-.07l-28.95-17.54a.5.5,0,0,1-.22-.31.49.49,0,0,1,.06-.37l12.2-20.14a.52.52,0,0,1,.31-.23.49.49,0,0,1,.37.06l28.95,17.54a.56.56,0,0,1,.23.31.51.51,0,0,1-.06.38l-12.2,20.13A.5.5,0,0,1,160.83,133.74Zm-28.26-18.2,28.09,17,11.68-19.28-28.09-17Z" fill="#231f20"></path><path d="M171.1,107.24a.45.45,0,0,1-.25-.07.46.46,0,0,1-.16-.65l7.62-12.58a.48.48,0,0,1,.66-.16.49.49,0,0,1,.16.66L171.51,107A.48.48,0,0,1,171.1,107.24Z" fill="#d1d3d4"></path><path d="M168.05,101.41a.5.5,0,0,1-.24-.06.48.48,0,0,1-.16-.66L173.5,91a.48.48,0,1,1,.82.49l-5.86,9.66A.48.48,0,0,1,168.05,101.41Z" fill="#d1d3d4"></path><path d="M161.48,101.41a.45.45,0,0,1-.25-.07.47.47,0,0,1-.16-.65l6.18-10.2a.48.48,0,0,1,.65-.16.49.49,0,0,1,.17.66l-6.18,10.19A.48.48,0,0,1,161.48,101.41Z" fill="#d1d3d4"></path><path d="M156.67,98.5a.45.45,0,0,1-.25-.07.48.48,0,0,1-.16-.66l3.09-5.09a.48.48,0,0,1,.66-.16.48.48,0,0,1,.16.65l-3.09,5.1A.48.48,0,0,1,156.67,98.5Z" fill="#d1d3d4"></path><path d="M161.62,90.33a.47.47,0,0,1-.25-.07.49.49,0,0,1-.16-.66l2.67-4.4a.48.48,0,0,1,.82.49L162,90.1A.48.48,0,0,1,161.62,90.33Z" fill="#d1d3d4"></path><path d="M153.4,93a.51.51,0,0,1-.24-.07.48.48,0,0,1-.16-.66l6.07-10a.49.49,0,0,1,.66-.16.48.48,0,0,1,.16.66l-6.08,10A.47.47,0,0,1,153.4,93Z" fill="#d1d3d4"></path><path d="M158.89,127.38a.42.42,0,0,1-.24-.07.46.46,0,0,1-.16-.65l7.62-12.58a.48.48,0,1,1,.81.5l-7.62,12.57A.47.47,0,0,1,158.89,127.38Z" fill="#d1d3d4"></path><path d="M155.85,121.55a.57.57,0,0,1-.25-.06.48.48,0,0,1-.16-.66l5.86-9.66a.47.47,0,1,1,.81.49l-5.85,9.67A.49.49,0,0,1,155.85,121.55Z" fill="#d1d3d4"></path><path d="M149.27,121.55a.5.5,0,0,1-.24-.06.48.48,0,0,1-.16-.66l6.17-10.2a.5.5,0,0,1,.66-.16.48.48,0,0,1,.16.66l-6.18,10.19A.47.47,0,0,1,149.27,121.55Z" fill="#d1d3d4"></path><rect x="207.55" y="177.6" width="57.58" height="3.92" transform="translate(-60.32 189.09) rotate(-39.07)" fill="#fff"></rect><path d="M215.22,199.73h-.05a.52.52,0,0,1-.34-.18l-2.47-3a.51.51,0,0,1,.08-.71l44.7-36.29a.51.51,0,0,1,.71.08l2.47,3a.56.56,0,0,1,.11.37.52.52,0,0,1-.18.34l-44.71,36.29A.52.52,0,0,1,215.22,199.73Zm-1.77-3.48,1.85,2.27,43.93-35.65-1.85-2.28Z" fill="#231f20"></path><rect x="218.75" y="177.85" width="55.85" height="28.88" transform="translate(-66.03 198.45) rotate(-39.07)" fill="#fff"></rect><path d="M234.1,221.61H234a.48.48,0,0,1-.33-.18L215.51,199a.51.51,0,0,1,.07-.71l43.36-35.2a.51.51,0,0,1,.71.08l18.2,22.42a.56.56,0,0,1,.11.37.57.57,0,0,1-.18.34l-43.37,35.19A.47.47,0,0,1,234.1,221.61Zm-17.5-22.86,17.57,21.65,42.59-34.57-17.57-21.64Z" fill="#231f20"></path><path d="M229,210.31a.48.48,0,0,1-.37-.17L219.59,199a.47.47,0,0,1,.07-.68l38.44-31.2a.43.43,0,0,1,.35-.1.51.51,0,0,1,.32.17l9.07,11.19a.47.47,0,0,1-.07.67l-38.43,31.2A.49.49,0,0,1,229,210.31Zm-8.41-11.59,8.48,10.45,37.69-30.6-8.47-10.44Z" fill="#d1d3d4"></path><path d="M249.28,205.73a.49.49,0,0,1-.38-.18l-4.43-5.46a.44.44,0,0,1-.1-.35.46.46,0,0,1,.17-.32l9.55-7.75a.47.47,0,0,1,.67.07l4.43,5.46a.47.47,0,0,1-.07.67l-9.54,7.75A.5.5,0,0,1,249.28,205.73Zm-3.77-5.87,3.84,4.72,8.8-7.15-3.83-4.72Z" fill="#d1d3d4"></path><path d="M264.25,250.4s15.41,20.17,19.93,20.54,42.39-35.87,41.13-39.38-23.39-22.51-23.39-22.51Z" fill="#231f20"></path><path d="M284.23,271.44h-.09c-4.61-.38-18.7-18.65-20.29-20.73a.5.5,0,0,1,0-.65l37.67-41.35a.5.5,0,0,1,.7,0c.9.78,22.24,19.12,23.53,22.72.19.52.09,1.44-2.1,4.3C316.35,245.25,288.72,271.44,284.23,271.44Zm-19.33-21c4.45,5.78,15.86,19.73,19.32,20h.06c3.18,0,26.38-20.87,36.77-33.11,3.9-4.59,3.81-5.51,3.79-5.61-1-2.72-16.5-16.48-22.88-22Z" fill="#231f20"></path><path d="M240.43,227.6s1.28-7.35.75-8.89-1.81-4.94-2.63-4-.31,4-.31,4-1.51-2.22-2.92-4.5-2.72-2.27-2.78-1.48a21.66,21.66,0,0,0,1.25,4.08s-1.91-4.54-2.65-3.43.75,5.13.75,5.13-2.16-4.9-3-3.24.16,5.16.76,6.37,5.63,10.25,5.63,10.25l5.87-4.57" fill="#fff"></path><path d="M235.32,232.33h-.1a.53.53,0,0,1-.34-.24c-.2-.37-5-9.07-5.64-10.28s-1.69-4.92-.76-6.81a1,1,0,0,1,.89-.62,1.7,1.7,0,0,1,1.12.69,3.3,3.3,0,0,1,.23-2,.85.85,0,0,1,.78-.4,1.13,1.13,0,0,1,.56.26,1.47,1.47,0,0,1,0-.28,1,1,0,0,1,.74-.91c.88-.22,2,.6,3,2.17.64,1,1.31,2.06,1.84,2.87a3.82,3.82,0,0,1,.6-2.41.89.89,0,0,1,.85-.3c.34.07,1.15.23,2.62,4.5.46,1.33-.24,6.13-.58,8.23a.48.48,0,0,1,.51.18.5.5,0,0,1-.08.7l-5.87,4.57A.5.5,0,0,1,235.32,232.33Zm-5.92-16.94,0,0c-.67,1.37.11,4.62.75,5.93.51,1,4.27,7.79,5.34,9.72l4.46-3.47a.28.28,0,0,1,0-.09c.48-2.8,1.12-7.61.76-8.64-1-3-1.62-3.65-1.81-3.81-.41.59-.34,2.37-.16,3.5a.49.49,0,0,1-.3.54.5.5,0,0,1-.6-.18s-1.54-2.25-2.94-4.51c-1-1.63-1.77-1.75-1.87-1.72a21.54,21.54,0,0,0,1.23,3.87.49.49,0,0,1-.28.64.48.48,0,0,1-.64-.27,12.16,12.16,0,0,0-1.83-3.22c-.25.73.23,2.86.86,4.56a.51.51,0,0,1-.29.64.5.5,0,0,1-.64-.26A9.67,9.67,0,0,0,229.4,215.39Z" fill="#231f20"></path><path d="M260.52,191.24s-7.19,2-8.77,1.64-5.1-1.3-4.28-2.21,3.92-.71,3.92-.71-2.36-1.28-4.77-2.46-2.53-2.48-1.75-2.61a21.35,21.35,0,0,1,4.18.83s-4.7-1.45-3.67-2.29,5.18.23,5.18.23S245.47,182,247,181s5.16-.36,6.42.12,10.76,4.58,10.76,4.58l-4,6.29" fill="#fff"></path><path d="M252.24,193.42a2.62,2.62,0,0,1-.61-.06c-4.39-1-4.64-1.82-4.74-2.16a.87.87,0,0,1,.21-.87,3.85,3.85,0,0,1,2.34-.84c-.86-.45-1.94-1-3-1.54-1.66-.81-2.58-1.83-2.45-2.73a1,1,0,0,1,.84-.82.31.31,0,1,0,0-.55.82.82,0,0,1,.31-.81,3.28,3.28,0,0,1,2-.43,1.74,1.74,0,0,1-.8-1.05,1,1,0,0,1,.53-.95c1.79-1.1,5.58-.4,6.85.08s10.4,4.42,10.79,4.59a.51.51,0,0,1,.28.31.53.53,0,0,1-.05.41l-4,6.3a.51.51,0,0,1-.69.16.49.49,0,0,1-.23-.49A41.24,41.24,0,0,1,252.24,193.42ZM247.89,191c.17.17.92.71,4,1.43,1.06.25,5.79-.87,8.52-1.63h.09l3-4.78c-2-.88-9.14-3.95-10.21-4.35-1.37-.51-4.67-1-6-.16-.07,0-.08.07-.08.07a10.9,10.9,0,0,0,3.49,1.65.5.5,0,0,1,.33.62.5.5,0,0,1-.61.34c-1.76-.46-3.93-.71-4.62-.4a11.86,11.86,0,0,0,3.39,1.5.5.5,0,0,1-.28,1,19.79,19.79,0,0,0-4-.82c0,.09.19.84,1.89,1.67,2.39,1.17,4.76,2.46,4.79,2.47a.5.5,0,0,1-.28.94C250.2,190.39,248.41,190.5,247.89,191Z" fill="#231f20"></path><path d="M275,237a75.92,75.92,0,0,0-4.48,10.74s-14.61-4-15.59-4.5-13.09-18.64-13.09-18.64l-8.18,5.88s10.89,18.76,13.48,21,18.77,9.87,24.65,10.6,18.06-6.47,26.08-14.57,17.43-24.71,15.91-30.82-6.36-9.46-8.21-10.7-11.67-10.39-13.27-11.4-29.12-11.3-29.12-11.3L260.25,192s24.83,10.69,26.3,11.63,12.48,16,12.48,16-8.63,2.64-12.83,5.62S275,237,275,237Z" fill="#68e1fd"></path><path d="M301.76,235.76a19.84,19.84,0,0,0-9.58-15.42,12.61,12.61,0,0,0-8.1-1.91,7.47,7.47,0,0,0-6.19,5.1,5,5,0,0,0-4.45.84c-3.39,2.48-3.22,7.44-2.48,11.11a24,24,0,0,0,2.65,7.43,16.61,16.61,0,0,0,16.28,7.59A14.25,14.25,0,0,0,301.76,235.76Z" fill="#fff"></path><path d="M287.68,251.15a17,17,0,0,1-14.5-8,24.36,24.36,0,0,1-2.71-7.59c-.78-3.84-1-9,2.68-11.61a5.67,5.67,0,0,1,4.41-1.05,8,8,0,0,1,6.45-5,13.25,13.25,0,0,1,8.43,2,20.26,20.26,0,0,1,9.82,15.81h0A14.74,14.74,0,0,1,290,251,15.89,15.89,0,0,1,287.68,251.15Zm-11.12-27.34a4.86,4.86,0,0,0-2.82,1c-3.2,2.33-3,7.05-2.29,10.6a23.24,23.24,0,0,0,2.59,7.28A16.07,16.07,0,0,0,289.82,250a13.72,13.72,0,0,0,11.44-14.21h0a19.22,19.22,0,0,0-9.33-15,12.24,12.24,0,0,0-7.78-1.86,7,7,0,0,0-5.77,4.74.55.55,0,0,1-.25.31.51.51,0,0,1-.4,0A3.77,3.77,0,0,0,276.56,223.81Z" fill="#231f20"></path><path d="M291.54,246a4,4,0,0,0,.37,2.61,5.6,5.6,0,0,1,.73,1.24,2.6,2.6,0,0,1-.06,1.24,29.82,29.82,0,0,1-.93,3.23.67.67,0,0,0-.06.46c.1.3.52.31.84.26,2.09-.31,4.26-.66,6-1.91a9.19,9.19,0,0,0,3.29-7.09c0-2.13-.5-5.82-3.15-6.07C295.35,239.69,292,243.06,291.54,246Z" fill="#fff"></path><path d="M292.16,255.59a1,1,0,0,1-1-.63,1.18,1.18,0,0,1,.05-.79,27.13,27.13,0,0,0,.92-3.16,2.24,2.24,0,0,0,.07-1,2.4,2.4,0,0,0-.39-.68c-.1-.14-.2-.29-.29-.44a4.38,4.38,0,0,1-.43-2.94c.48-3.18,4.06-6.77,7.53-6.45,2.72.26,3.65,3.57,3.6,6.58a9.72,9.72,0,0,1-3.49,7.48c-1.84,1.36-4.25,1.72-6.18,2Zm-.07-1a.86.86,0,0,0,.27,0c1.92-.29,4.1-.61,5.73-1.82a8.66,8.66,0,0,0,3.09-6.7c0-.54,0-5.31-2.7-5.56-2.93-.29-6,2.9-6.44,5.6h0a3.55,3.55,0,0,0,.3,2.29l.25.36a2.54,2.54,0,0,1,.48,2.48,28.61,28.61,0,0,1-.95,3.28Zm-.55-8.56h0Z" fill="#231f20"></path><path d="M196.62,222.91a10.25,10.25,0,0,1,3.43,20.16l.38,3.72a1.38,1.38,0,1,1-2.74.28l-.38-3.72a10.25,10.25,0,0,1-.69-20.44Z" fill="#fff"></path><path d="M199.06,248.81a1.88,1.88,0,0,1-1.87-1.69l-.33-3.29a10.75,10.75,0,0,1-.29-21.42h0a10.75,10.75,0,0,1,4,21l.34,3.29a1.88,1.88,0,0,1-1.68,2.06Zm-2.39-25.4a9.75,9.75,0,0,0,.66,19.44.5.5,0,0,1,.48.45l.38,3.72a.88.88,0,0,0,1,.79.88.88,0,0,0,.78-1l-.38-3.73a.49.49,0,0,1,.39-.53,9.75,9.75,0,0,0-3.27-19.18Z" fill="#231f20"></path><circle cx="197.66" cy="233.11" r="7.25" fill="#231f20"></circle><path d="M197.64,240.86a7.74,7.74,0,0,1-.76-15.45h0a7.74,7.74,0,0,1,1.56,15.41A7.14,7.14,0,0,1,197.64,240.86ZM197,226.4a6.74,6.74,0,1,0,4.94,1.48A6.75,6.75,0,0,0,197,226.4Z" fill="#231f20"></path><path d="M122.34,145.81a10.25,10.25,0,0,1-4.57,19.94l-1.07,3.58a1.38,1.38,0,0,1-2.64-.79l1.08-3.58a10.25,10.25,0,0,1,7.2-19.15Z" fill="#fff"></path><path d="M115.38,170.81a1.68,1.68,0,0,1-.54-.08,1.87,1.87,0,0,1-1.26-2.34l1-3.17a10.75,10.75,0,0,1,8-19.89h0a10.75,10.75,0,0,1-4.35,21l-.95,3.18a1.89,1.89,0,0,1-.91,1.11A1.86,1.86,0,0,1,115.38,170.81Zm4-24.94a9.76,9.76,0,0,0-4,18.63.5.5,0,0,1,.28.6l-1.08,3.58a.87.87,0,0,0,.06.67.84.84,0,0,0,.52.42.88.88,0,0,0,1.1-.58l1.08-3.59a.48.48,0,0,1,.55-.34,9.75,9.75,0,1,0,1.52-19.39Z" fill="#231f20"></path><circle cx="119.38" cy="155.63" r="7.25" fill="#231f20"></circle><path d="M119.39,163.38a7.84,7.84,0,0,1-2.24-.33,7.75,7.75,0,1,1,2.24.33Zm0-14.5a6.77,6.77,0,0,0-6.45,4.81,6.74,6.74,0,1,0,8.41-4.52A6.94,6.94,0,0,0,119.37,148.88Z" fill="#231f20"></path><path d="M188.43,69.55A10.25,10.25,0,0,1,168,70.93h-3.74a1.38,1.38,0,1,1,0-2.75H168a10.25,10.25,0,0,1,20.4,1.37Z" fill="#fff"></path><path d="M178.18,80.3a10.76,10.76,0,0,1-10.58-8.87h-3.31a1.88,1.88,0,1,1,0-3.75h3.31A10.75,10.75,0,1,1,178.18,80.3ZM164.29,68.68a.88.88,0,1,0,0,1.75H168a.5.5,0,0,1,.49.44,9.75,9.75,0,1,0,0-2.63.5.5,0,0,1-.49.44Z" fill="#231f20"></path><circle cx="178.18" cy="69.55" r="7.25" fill="#231f20"></circle><path d="M178.18,77.3a7.75,7.75,0,1,1,7.75-7.75A7.76,7.76,0,0,1,178.18,77.3Zm0-14.49a6.75,6.75,0,1,0,6.75,6.74A6.75,6.75,0,0,0,178.18,62.81Z" fill="#231f20"></path><path d="M300,131.57a10.25,10.25,0,0,1-20.4,1.37h-3.74a1.38,1.38,0,1,1,0-2.75h3.74a10.25,10.25,0,0,1,20.4,1.38Z" fill="#fff"></path><path d="M289.77,142.31a10.74,10.74,0,0,1-10.57-8.87h-3.31a1.88,1.88,0,1,1,0-3.75h3.31a10.75,10.75,0,1,1,10.57,12.62Zm-13.88-11.62a.88.88,0,1,0,0,1.75h3.74a.5.5,0,0,1,.49.44,9.75,9.75,0,1,0,0-2.63.5.5,0,0,1-.49.44Z" fill="#231f20"></path><circle cx="289.78" cy="131.57" r="7.25" fill="#231f20"></circle><path d="M289.78,139.31a7.75,7.75,0,1,1,7.74-7.74A7.75,7.75,0,0,1,289.78,139.31Zm0-14.49a6.75,6.75,0,1,0,6.74,6.75A6.76,6.76,0,0,0,289.78,124.82Z" fill="#231f20"></path><path d="M278.53,108.42s-7.77,5.23-9.5,5.64-10.68.13-10.68.13l8.5-12.07s6-1.25,9.09-.93S278.53,108.42,278.53,108.42Z" fill="#fff"></path><path d="M264.25,114.79c-2.79,0-5.71-.1-5.92-.1a.53.53,0,0,1-.43-.28.52.52,0,0,1,0-.51l8.5-12.07a.51.51,0,0,1,.31-.2c.24,0,6.1-1.27,9.24-.93,3.54.37,3.06,7.46,3,7.76a.5.5,0,0,1-.22.38c-.8.54-7.88,5.28-9.65,5.71A31.4,31.4,0,0,1,264.25,114.79Zm-5-1.08c2.93.08,8.41.16,9.63-.13s6.84-3.91,9.12-5.43c.1-1.94-.11-6.24-2.16-6.46-2.68-.28-7.7.67-8.74.88Zm19.24-5.29h0Z" fill="#231f20"></path><path d="M245.46,78.6a15,15,0,0,1,.21,4.17c-.23,1.37.78,6.31.78,6.31L237,97s-2.34-12-1.75-14a94.65,94.65,0,0,1,4-8.68Z" fill="#fff"></path><path d="M237,97.48a.45.45,0,0,1-.16,0,.51.51,0,0,1-.33-.37c-.24-1.24-2.35-12.14-1.74-14.24a93.4,93.4,0,0,1,4-8.77.52.52,0,0,1,.32-.26.5.5,0,0,1,.41.08l6.24,4.3a.58.58,0,0,1,.17.21,14.93,14.93,0,0,1,.25,4.46c-.18,1,.5,4.77.77,6.12a.49.49,0,0,1-.17.49l-9.48,7.89A.47.47,0,0,1,237,97.48ZM239.41,75a81.34,81.34,0,0,0-3.71,8.08c-.39,1.34.7,8.17,1.6,12.93l8.61-7.16c-.24-1.16-.95-4.94-.73-6.2A15.32,15.32,0,0,0,245,78.9Z" fill="#231f20"></path><path d="M309.15,67.43c.84,5.08-7.1,33.92-8.67,35.53s-22.57,8.91-22.57,8.91l-3.48-12.05s14.93-6.84,15.82-7.58,3-11.74,3-11.74-13.26-2-18.19-6.2-9.4-17.9-11.87-18.45-9.92,3.91-11,5.8-3.71,18.9-3.71,18.9L236,76.67s3.52-17.6,5.58-22.64,25.87-16.5,28.58-16.77S308.31,62.36,309.15,67.43Z" fill="#68e1fd"></path><path d="M262.4,66.64a16.67,16.67,0,0,0,4,9.28s-.62,1.72.62,2.18a5.2,5.2,0,0,0,2.15.38s7.56,3.89,11.41,2-1.44-17.33-8.08-17.18S262.4,66.64,262.4,66.64Z" fill="#fff"></path><path d="M278,81.5c-3.7,0-8.11-2.11-8.92-2.52a6,6,0,0,1-2.22-.41,2,2,0,0,1-1-2.52,17.07,17.07,0,0,1-3.92-9.38.5.5,0,0,1,.16-.4c.14-.14,3.65-3.32,10.41-3.47,4.6-.15,8.29,6.47,9.44,11.17.88,3.58.46,6.18-1.13,7A6.47,6.47,0,0,1,278,81.5ZM269.14,78a.59.59,0,0,1,.23,0c.08,0,7.39,3.76,11,2,1.1-.54,1.34-2.82.6-5.82-1.23-5-4.77-10.41-8.37-10.41h-.08a16.11,16.11,0,0,0-9.57,3,16.16,16.16,0,0,0,3.82,8.73.51.51,0,0,1,.11.51s-.43,1.26.32,1.55a4.67,4.67,0,0,0,1.93.34Z" fill="#231f20"></path><path d="M262.4,66.64a10.57,10.57,0,0,0,10.79,3.64s1,7.55,7.37,10.2c0,0,11.68-4.49,14.09-13.18s-3.34-15.88-10.11-18.88S260.9,49.38,262.4,66.64Z" fill="#fff"></path><path d="M280.56,81a.43.43,0,0,1-.19,0c-5.61-2.35-7.21-8.24-7.58-10.06A11.2,11.2,0,0,1,262,66.93a.54.54,0,0,1-.09-.25c-.77-8.89,3.22-13.73,6.71-16.22C274,46.59,281,46.29,284.75,48c6.77,3,12.9,10.38,10.38,19.48-2.45,8.83-13.9,13.32-14.39,13.51A.57.57,0,0,1,280.56,81Zm-7.37-11.2a.5.5,0,0,1,.49.44c0,.07,1.06,7.14,6.89,9.72,1.48-.62,11.44-5,13.6-12.77,2.36-8.53-3.44-15.46-9.83-18.29-3.57-1.59-10.22-1.12-15.15,2.4-3.25,2.32-7,6.84-6.31,15.17a10,10,0,0,0,10.2,3.35Z" fill="#231f20"></path><rect x="235.42" y="89.11" width="30.53" height="23.72" rx="2.75" transform="translate(400 326.24) rotate(-145.47)" fill="#fff"></rect><path d="M255.83,118.82a3.29,3.29,0,0,1-1.84-.57l-20.62-14.19a3.25,3.25,0,0,1-.83-4.52l10.32-15a3.26,3.26,0,0,1,4.52-.84L268,97.88a3.24,3.24,0,0,1,.84,4.52l-10.32,15A3.25,3.25,0,0,1,255.83,118.82Zm-10.29-34.7a2.24,2.24,0,0,0-1.85,1l-10.33,15a2.26,2.26,0,0,0,.58,3.13l20.62,14.18a2.24,2.24,0,0,0,3.13-.58l10.33-15a2.26,2.26,0,0,0-.58-3.13L246.82,84.52A2.25,2.25,0,0,0,245.54,84.12Z" fill="#231f20"></path><rect x="237.73" y="91.56" width="25.91" height="18.83" rx="1.45" transform="translate(400 326.24) rotate(-145.47)" fill="#fff"></rect><path d="M255.65,116a2,2,0,0,1-1.1-.34l-19-13a1.92,1.92,0,0,1-.81-1.26,1.86,1.86,0,0,1,.31-1.45l9-13.13a2,2,0,0,1,2.71-.5h0l19,13a2,2,0,0,1,.5,2.71l-9,13.13A2,2,0,0,1,255.65,116Zm-9.93-29.06a1,1,0,0,0-.78.41l-9,13.12a1,1,0,0,0-.15.71,1,1,0,0,0,.4.61l19,13a.93.93,0,0,0,1.31-.24l9-13.13a.92.92,0,0,0,.16-.7,1,1,0,0,0-.4-.61l-19-13.05A1,1,0,0,0,245.72,86.94Z" fill="#231f20"></path><path d="M265.67,108.69s-7,1.11-7.75-.1.74-3.06,2.07-3.43,8.45-.86,8.45-.86" fill="#fff"></path><path d="M260.64,109.66c-1.48,0-2.76-.2-3.14-.8a2.06,2.06,0,0,1-.12-1.88,4.06,4.06,0,0,1,2.47-2.3c1.37-.39,8.26-.86,8.56-.88a.5.5,0,0,1,.53.46.49.49,0,0,1-.47.53c-2,.14-7.3.55-8.35.85a3,3,0,0,0-1.8,1.7,1.08,1.08,0,0,0,0,1c.35.49,3.74.43,7.25-.13a.5.5,0,0,1,.57.42.5.5,0,0,1-.42.57A35.58,35.58,0,0,1,260.64,109.66Z" fill="#231f20"></path><path d="M238.63,86.44c0,.17-.37,7.61,1.35,8.19s1.64-1.3,1.85-3-.35-4.59.61-6.67" fill="#fff"></path><path d="M240.55,95.24a2.5,2.5,0,0,1-.72-.13c-1.65-.56-1.84-5-1.7-8.61a.53.53,0,0,1,.5-.52h0a.47.47,0,0,1,.49.47v.09c-.18,4.72.38,7.4,1,7.62a.86.86,0,0,0,.63,0c.32-.2.41-1.1.49-1.89,0-.23,0-.47.07-.7a14.81,14.81,0,0,0,0-1.94,11.38,11.38,0,0,1,.61-4.88.5.5,0,0,1,.67-.24.49.49,0,0,1,.24.66,10.54,10.54,0,0,0-.52,4.44,15.39,15.39,0,0,1,0,2.08c0,.23-.06.46-.08.68-.11,1.11-.22,2.17-.94,2.63A1.31,1.31,0,0,1,240.55,95.24Z" fill="#231f20"></path><rect x="135.14" y="183.42" width="36.72" height="44.76" transform="translate(189.48 -48.41) rotate(44.77)" fill="#fff"></rect><path d="M150.77,235.12a.5.5,0,0,1-.35-.15l-26.07-25.86a.5.5,0,0,1-.14-.35.48.48,0,0,1,.14-.36l31.52-31.77a.5.5,0,0,1,.71,0l26.07,25.86a.5.5,0,0,1,0,.71L151.13,235A.51.51,0,0,1,150.77,235.12Zm-25.36-26.37,25.36,25.16,30.82-31.06-25.36-25.16Z" fill="#231f20"></path><path d="M172.59,204.5a.48.48,0,0,1-.34-.14l-17.58-17.45a.47.47,0,1,1,.67-.67l17.58,17.44a.49.49,0,0,1,0,.68A.51.51,0,0,1,172.59,204.5Z" fill="#d1d3d4"></path><path d="M167.55,209.57a.43.43,0,0,1-.33-.14L149.63,192a.48.48,0,0,1,0-.68.49.49,0,0,1,.68,0l17.58,17.44a.48.48,0,0,1,0,.68A.49.49,0,0,1,167.55,209.57Z" fill="#d1d3d4"></path><path d="M162.52,214.64a.48.48,0,0,1-.34-.13L144.6,197.06a.47.47,0,0,1,0-.67.47.47,0,0,1,.67,0l17.58,17.45a.47.47,0,0,1,0,.67A.47.47,0,0,1,162.52,214.64Z" fill="#d1d3d4"></path><path d="M157.48,219.72a.47.47,0,0,1-.33-.14l-17.59-17.44a.5.5,0,0,1,0-.68.48.48,0,0,1,.68,0l17.58,17.44a.48.48,0,0,1-.34.82Z" fill="#d1d3d4"></path><path d="M145.16,217.56a.46.46,0,0,1-.33-.13l-10.3-10.22a.48.48,0,0,1,0-.68.48.48,0,0,1,.67,0l10.3,10.22a.47.47,0,0,1,0,.67A.44.44,0,0,1,145.16,217.56Z" fill="#d1d3d4"></path><path d="M114.71,215.08c1.35-1.45,3.59-1.56,5.58-1.56a11.41,11.41,0,0,1,3.91.46,11.42,11.42,0,0,1,4.28,3.36c2.08,2.26,4.28,4.77,4.47,7.84.25,4-3.37,7.58-7.36,8.22s-8-1.08-11.18-3.6a9,9,0,0,1-3.6-5.11,7.45,7.45,0,0,1,1.85-5.89,22.47,22.47,0,0,1,4.91-4" fill="#fff"></path><path d="M123.86,234c-4.26,0-7.86-2.32-9.76-3.84-2.2-1.76-3.44-3.53-3.78-5.41a7.86,7.86,0,0,1,2-6.3,22.1,22.1,0,0,1,5-4.12.51.51,0,0,1,.7.14.5.5,0,0,1-.14.69,21.44,21.44,0,0,0-4.8,3.93,6.86,6.86,0,0,0-1.75,5.48c.3,1.64,1.42,3.21,3.42,4.81s6.15,4.24,10.79,3.49c3.55-.57,7.18-3.79,6.94-7.69-.17-2.8-2.15-5.16-4.33-7.53a11.11,11.11,0,0,0-4.09-3.23,10.88,10.88,0,0,0-3.74-.43c-2,0-4,.11-5.21,1.4a.5.5,0,0,1-.71,0,.51.51,0,0,1,0-.71c1.48-1.58,3.84-1.72,6-1.72a12,12,0,0,1,4.08.48,12,12,0,0,1,4.48,3.5c2.31,2.51,4.41,5,4.6,8.15.28,4.43-3.8,8.1-7.78,8.74A11.21,11.21,0,0,1,123.86,234Z" fill="#231f20"></path><path d="M131.7,180.51a7.83,7.83,0,0,1,1.78-.53c.71-.08,3.67-.32,6.22-.78s4.22-.88,3.82-1.65-4.94-.94-4.94-.94a37.21,37.21,0,0,1,4.88-3.45c1.33-.56,2-1,1.92-1.65s-.15-1.34-3.36.51c0,0,3.09-2.46,1.82-2.94s-3.65,1.37-3.65,1.37,2.79-2.37,2.26-3-3.73.82-3.73.82,3.16-1.72,2.33-2.38-3.33.09-6.54,2.25-8.28,6.28-8.28,6.28Z" fill="#fff"></path><path d="M131.7,181a.5.5,0,0,1-.37-.17l-5.47-6.11a.49.49,0,0,1-.12-.37.5.5,0,0,1,.18-.35s5.12-4.15,8.31-6.3c3.37-2.28,6-3.11,7.13-2.23a.83.83,0,0,1,.32.74,1.2,1.2,0,0,1-.25.59,1.49,1.49,0,0,1,1.41.31c.28.35.22.84-.19,1.48a2.32,2.32,0,0,1,1.36,0,.89.89,0,0,1,.62.71,1.61,1.61,0,0,1-.33,1.07,1.4,1.4,0,0,1,1,0,1.15,1.15,0,0,1,.55,1c.13,1.09-1,1.67-2.22,2.17a26,26,0,0,0-3.73,2.56c1.85.15,3.68.46,4,1.14a.94.94,0,0,1,0,.85c-.31.65-1.33,1-4.19,1.53-2.23.39-4.77.63-5.86.73l-.4,0a7.54,7.54,0,0,0-1.63.5A.45.45,0,0,1,131.7,181ZM127,174.46l4.88,5.46a6.59,6.59,0,0,1,1.59-.44l.41,0c1.07-.1,3.58-.34,5.78-.73s3.3-.71,3.47-1a17.27,17.27,0,0,0-4.53-.61.48.48,0,0,1-.45-.34.5.5,0,0,1,.15-.55,36.3,36.3,0,0,1,5-3.52c1.13-.48,1.64-.83,1.61-1.13a1.31,1.31,0,0,0,0-.27s-.45-.07-2.56,1.15a.52.52,0,0,1-.67-.15.5.5,0,0,1,.11-.67c1-.81,1.94-1.83,1.93-2.15-.75-.21-2.45.82-3.15,1.36a.49.49,0,0,1-.69-.08.51.51,0,0,1,.06-.7,9.22,9.22,0,0,0,2.13-2.32,10,10,0,0,0-3.06,1,.5.5,0,0,1-.45-.9,7.74,7.74,0,0,0,2.17-1.6c-.59-.28-2.57.1-5.86,2.33C132.16,170.31,128.23,173.44,127,174.46Z" fill="#231f20"></path><polygon points="129.86 182.27 132.29 180.73 126.43 173.48 122.55 176 129.86 182.27" fill="#231f20"></polygon><path d="M129.86,182.77a.5.5,0,0,1-.33-.12l-7.3-6.27a.46.46,0,0,1-.17-.41.51.51,0,0,1,.22-.39l3.88-2.52a.5.5,0,0,1,.66.11l5.86,7.24a.58.58,0,0,1,.1.4.5.5,0,0,1-.23.34l-2.43,1.54A.5.5,0,0,1,129.86,182.77Zm-6.47-6.71,6.51,5.59,1.64-1-5.21-6.46Z" fill="#231f20"></path><path d="M145.9,229.38s-2.73-4.62-3-6.38.26-4.6.71-4.65,1.58,2.32,1.35,3.72c0,0,2.41-7.09,3.72-7.28s1,1.33.7,2.2c0,0,1.12-2.13,1.72-1.61s.26,2.57.26,2.57.84-2.29,1.53-1.84.27,2.43.27,2.43.87-2.33,1.38-1.37.4,10.85-.8,13.83S145.9,229.38,145.9,229.38Z" fill="#fff"></path><path d="M152,232.51c-2.45,0-6-2.41-6.42-2.72a.4.4,0,0,1-.14-.15c-.12-.2-2.78-4.72-3.1-6.56a8.89,8.89,0,0,1,.64-4.92.76.76,0,0,1,.5-.31.79.79,0,0,1,.68.31,5.12,5.12,0,0,1,.95,1.81c.93-2.43,2.31-5.51,3.43-5.67a1.25,1.25,0,0,1,1.26.42,1.22,1.22,0,0,1,.22.44,1.36,1.36,0,0,1,.64-.35.82.82,0,0,1,.7.19,1.62,1.62,0,0,1,.47,1,1.42,1.42,0,0,1,.53-.37.82.82,0,0,1,.73.1,1.43,1.43,0,0,1,.56.95.87.87,0,0,1,.49-.2.78.78,0,0,1,.77.49c.65,1.23.4,11.35-.78,14.26a2,2,0,0,1-1.32,1.21A3,3,0,0,1,152,232.51ZM146.27,229c1.3.89,4.69,2.89,6.29,2.41a1,1,0,0,0,.67-.62c1.13-2.79,1.21-11.46.89-13.18a5.43,5.43,0,0,0-.53,1.08.5.5,0,0,1-1-.28,3.72,3.72,0,0,0,0-1.85,4.87,4.87,0,0,0-.84,1.53.51.51,0,0,1-.6.31.49.49,0,0,1-.36-.56,4.68,4.68,0,0,0,0-2,5,5,0,0,0-1,1.4.5.5,0,0,1-.91-.42,2,2,0,0,0,.17-1.48c-.06-.07-.25-.05-.33,0-.58.18-2.1,3.36-3.31,6.94a.5.5,0,0,1-1-.24,5.1,5.1,0,0,0-.77-2.89,9.61,9.61,0,0,0-.31,3.81C143.59,224.25,145.49,227.7,146.27,229Z" fill="#231f20"></path><polygon points="145.2 231.84 145.9 229.38 153.7 231 152.85 235.22 145.2 231.84" fill="#231f20"></polygon><path d="M152.85,235.72a.65.65,0,0,1-.2,0L145,232.29a.49.49,0,0,1-.28-.59l.7-2.45a.49.49,0,0,1,.58-.36l7.8,1.62a.51.51,0,0,1,.39.59l-.85,4.22a.5.5,0,0,1-.26.34A.46.46,0,0,1,152.85,235.72Zm-7-4.16,6.68,2.95.63-3.12L146.25,230Z" fill="#231f20"></path><path d="M111.63,219s-7.13-4.19-11.12-4.86c0,0,7.51-15,8.41-16s22-15.7,22-15.7l-7.36-8.22s-21.66,14.31-26.17,19.2S83.7,211.2,86.16,219.38s5,18.14,15.67,27.44a47.72,47.72,0,0,0,29.05,11.88c7.12.39,14.93-1.52,17.17-3.74s5.65-21.35,5.65-21.35L143.91,231l-3.32,15.67-8-3s-1.08-6.65-9.09-13.23A89.94,89.94,0,0,1,111.63,219Z" fill="#68e1fd"></path><path d="M114.3,246.55a10.91,10.91,0,0,0,6.14-1.58c4.65-2.82,8.67-5.83,11.56-10.6,1.11-1.82,2-4.06,1.24-6-1-2.51-4.59-3.65-5.22-6.2-.21-.86.08-1.8-.21-2.64a2.7,2.7,0,0,0-2-1.61,9.83,9.83,0,0,1-1.19-.29,6,6,0,0,1-1.83-1.64,7.59,7.59,0,0,0-6.3-2,13.55,13.55,0,0,0-6.22,2.67c-5.08,3.66-10.2,11-9.25,17.6C102,240.64,107.74,246.3,114.3,246.55Z" fill="#fff"></path><path d="M114.76,247.06h-.48c-6.59-.25-12.76-6-13.74-12.74-1-6.62,4.16-14.26,9.46-18.08a14.07,14.07,0,0,1,6.45-2.76,8.07,8.07,0,0,1,6.72,2.13l.43.48a3.64,3.64,0,0,0,1.23,1,4.35,4.35,0,0,0,.69.17l.43.09a3.2,3.2,0,0,1,2.33,1.94,4.28,4.28,0,0,1,.16,1.58,4.38,4.38,0,0,0,.06,1.1c.29,1.18,1.35,2.05,2.47,3a8.44,8.44,0,0,1,2.73,3.16c.71,1.78.29,3.9-1.27,6.48-3.08,5.08-7.46,8.17-11.73,10.77A11.33,11.33,0,0,1,114.76,247.06Zm2.79-32.65c-.32,0-.65,0-1,.05a13.12,13.12,0,0,0-6,2.58c-5.06,3.65-10,10.89-9,17.13s6.66,11.65,12.79,11.88h0a10.23,10.23,0,0,0,5.86-1.51c4.16-2.52,8.43-5.54,11.4-10.43,1.39-2.29,1.78-4.12,1.19-5.6a7.56,7.56,0,0,0-2.44-2.75c-1.19-1-2.43-2-2.8-3.51a5.33,5.33,0,0,1-.09-1.37,3.69,3.69,0,0,0-.1-1.22,2.27,2.27,0,0,0-1.63-1.3l-.37-.07a5.13,5.13,0,0,1-.89-.24,4.46,4.46,0,0,1-1.6-1.31c-.13-.15-.26-.3-.4-.44A6.84,6.84,0,0,0,117.55,214.41Z" fill="#231f20"></path><path d="M134.59,109.55a12.74,12.74,0,0,1,6.92-.33s.91-2,2.35-2.25,1.13.36,1.13.36,1.19-1.45,1.86-.9c0,0,1.41.62,1.58,1.51,0,0,1.88-.66,2.18.43s-1.26,3.32-3.67,5.34-5.31,3.61-6.18,3.65-7.48-1.29-7.48-1.29Z" fill="#fff"></path><path d="M140.72,117.86c-1.05,0-6.44-1.08-7.53-1.3a.51.51,0,0,1-.4-.59l1.31-6.52a.49.49,0,0,1,.31-.37,13.39,13.39,0,0,1,6.84-.44,4.26,4.26,0,0,1,2.52-2.16,2.25,2.25,0,0,1,1.31,0c.63-.58,1.41-1,2-.51a3.92,3.92,0,0,1,1.62,1.34,2.64,2.64,0,0,1,1.72.1,1.23,1.23,0,0,1,.64.8c.41,1.48-1.63,4-3.82,5.85s-5.38,3.71-6.49,3.77Zm-6.85-2.18c2.55.51,6.31,1.19,6.86,1.18s3.34-1.4,5.89-3.53,3.71-4.09,3.5-4.83a.24.24,0,0,0-.14-.18,2.27,2.27,0,0,0-1.39.09.5.5,0,0,1-.41,0,.53.53,0,0,1-.24-.34c-.09-.47-.91-1-1.29-1.15a.67.67,0,0,1-.12-.06c-.12-.1-.71.29-1.15.82a.49.49,0,0,1-.88-.24,2.77,2.77,0,0,0-.54.06c-1,.19-1.77,1.48-2,2a.51.51,0,0,1-.58.27,12.48,12.48,0,0,0-6.37.23Zm10.67-8.57h0Z" fill="#231f20"></path><path d="M144.71,116.33a.48.48,0,0,1-.26-.07.51.51,0,0,1-.18-.68l6.84-11.74a.51.51,0,0,1,.69-.18.51.51,0,0,1,.18.69l-6.84,11.73A.5.5,0,0,1,144.71,116.33Z" fill="#231f20"></path><path d="M146.32,108.38a10.63,10.63,0,0,1,2.38-.3,1.32,1.32,0,0,1,1,.27.91.91,0,0,1,.13,1,1.87,1.87,0,0,1-.73.77,11.83,11.83,0,0,1-3.08,1.18,2.23,2.23,0,0,0-.69.3,3.34,3.34,0,0,0-.64.75,8.43,8.43,0,0,1-2.76,2.11" fill="#fff"></path><path d="M141.92,115a.49.49,0,0,1-.44-.26.5.5,0,0,1,.2-.68,8,8,0,0,0,2.6-2l.12-.16a2.9,2.9,0,0,1,.63-.69,2.82,2.82,0,0,1,.83-.38l.66-.2a8.3,8.3,0,0,0,2.29-.91,1.55,1.55,0,0,0,.56-.56.46.46,0,0,0,0-.46c-.12-.12-.42-.12-.64-.12a10.14,10.14,0,0,0-2.26.29.5.5,0,0,1-.6-.37.49.49,0,0,1,.36-.6,11,11,0,0,1,2.49-.32,1.83,1.83,0,0,1,1.36.42,1.42,1.42,0,0,1,.23,1.56,2.41,2.41,0,0,1-.91,1,9,9,0,0,1-2.57,1l-.64.2a1.79,1.79,0,0,0-.54.22,2.13,2.13,0,0,0-.41.47l-.13.18a9,9,0,0,1-2.92,2.25A.53.53,0,0,1,141.92,115Z" fill="#231f20"></path><path d="M158.18,89.19a12,12,0,0,0-2.2,5.13c-.81,3.57-1.3,6.63-.54,6.72s2.34-3.31,2.34-3.31.5,7.84,1.8,7.87,1.2-1.31,1.2-1.31.82,1.66,1.46,1a1.8,1.8,0,0,0,.31-1.66s.85,1.52,1.33.93a1.78,1.78,0,0,0,.22-1.47s1.11,1.39,1.43.33S165,94.34,164,91.22a21.2,21.2,0,0,0-2.12-4.88Z" fill="#fff"></path><path d="M159.61,106.1h0c-1,0-1.75-2.23-2.15-6.56-.79,1.38-1.48,2.07-2,2a.79.79,0,0,1-.56-.33c-.36-.51-.53-1.71.66-7a12.46,12.46,0,0,1,2.32-5.35l.06-.06,3.68-2.86a.54.54,0,0,1,.39-.1.57.57,0,0,1,.34.22,21.73,21.73,0,0,1,2.18,5c.91,2.93,1.94,11.26,1.55,12.55a.93.93,0,0,1-.72.73,1,1,0,0,1-.68-.12,1.82,1.82,0,0,1-.34.7.83.83,0,0,1-.72.32A1.17,1.17,0,0,1,163,105a1.64,1.64,0,0,1-.43.67.89.89,0,0,1-.81.27,1.48,1.48,0,0,1-.81-.51,1.19,1.19,0,0,1-.15.18A1.57,1.57,0,0,1,159.61,106.1Zm-1.82-8.87h.09a.49.49,0,0,1,.4.46c.24,3.69.87,7.08,1.38,7.42a.67.67,0,0,0,.43-.18.94.94,0,0,0,.19-.62.51.51,0,0,1,.38-.51.49.49,0,0,1,.57.26,2.18,2.18,0,0,0,.71.9c.35-.38.13-1.14.13-1.15a.5.5,0,0,1,.91-.39,3.4,3.4,0,0,0,.58.76,1.43,1.43,0,0,0,.06-.92.5.5,0,0,1,.87-.44,2.7,2.7,0,0,0,.55.5,49.32,49.32,0,0,0-1.54-12,23.41,23.41,0,0,0-1.78-4.29l-3.19,2.48a12,12,0,0,0-2.07,4.87c-1,4.27-1,5.61-.87,6a14.13,14.13,0,0,0,1.74-2.94A.51.51,0,0,1,157.79,97.23Zm-2.14,3.39h0Z" fill="#231f20"></path><path d="M123.94,48.54s-9.62-12.73-13.16-13.42S77.44,72.85,77.53,77.7,99,92.58,99,92.58Z" fill="#231f20"></path><path d="M99,93.08a.54.54,0,0,1-.21,0C96.55,92,77.12,82.73,77,77.71,77,73.17,100.53,42.45,108.21,36c1.62-1.36,2.27-1.44,2.66-1.37,3.63.7,12.47,12.29,13.46,13.61a.48.48,0,0,1,0,.55l-25,44A.5.5,0,0,1,99,93.08Zm11.7-57.47c-.07,0-.63.06-2.44,1.7C99.42,45.27,78,74,78,77.7S92.63,89,98.77,91.93l24.57-43.35c-2.8-3.67-10-12.45-12.66-13Z" fill="#231f20"></path><path d="M103.48,58S113,47.31,119.8,44.37s12.91-3.09,17.13.43,15.08,13.48,17.14,18,10.17,24.46,10.17,24.46l-9.67,4.5s-9.51-22.15-10.23-24-13.29-9.86-13.73-10.29-3,10.46-7.35,14.88-19.15,15.32-19.15,15.32,10.11,12.36,11.87,14.08,21.84,5.64,21.84,5.64l-2.64,10.16s-21.38-3.31-24.69-4.71S88.85,99.93,88,89.08,103.48,58,103.48,58Z" fill="#68e1fd"></path><path d="M126.21,62.05a22.49,22.49,0,0,1,3,5.1,13,13,0,0,1,1.38,7.28c-.42,2.47-2.3,4.83-4.79,5.09,1,2.94-.92,6.27-3.66,7.7s-6.07,1.25-9,.36A21.63,21.63,0,0,1,98.6,71.49c-1.25-6,2.15-13.58,8.5-15.35C113.7,54.31,121.91,56.75,126.21,62.05Z" fill="#fff"></path><path d="M117.53,88.76a15.75,15.75,0,0,1-4.52-.7,22.24,22.24,0,0,1-14.9-16.47c-1.24-6,2.09-14.05,8.85-15.93s15.29.71,19.64,6.08h0A22.65,22.65,0,0,1,129.71,67c.83,1.87,1.89,4.69,1.41,7.56-.39,2.33-2.1,4.84-4.66,5.41.69,3.18-1.43,6.38-4,7.74A10.56,10.56,0,0,1,117.53,88.76ZM111.68,56a16.93,16.93,0,0,0-4.45.58c-6.23,1.74-9.29,9.18-8.14,14.77a21.23,21.23,0,0,0,14.2,15.71c3.28,1,6.36.87,8.66-.33s4.32-4.28,3.41-7.1a.45.45,0,0,1,.06-.42.49.49,0,0,1,.36-.23c2.36-.25,4-2.59,4.35-4.68s-.09-4.2-1.34-7a22,22,0,0,0-3-5C122.61,58.41,117.05,56,111.68,56Z" fill="#231f20"></path><path d="M105.65,55.16a8.41,8.41,0,0,0-4.33,1A5.84,5.84,0,0,0,98.8,58a4.79,4.79,0,0,0-.7,2.19A7.43,7.43,0,0,0,99,65a4.42,4.42,0,0,0,4.16,2.16,5.93,5.93,0,0,0,2-.75,9.47,9.47,0,0,0,3.75-3.51C110.39,60.07,109.26,55.57,105.65,55.16Z" fill="#fff"></path><path d="M102.67,67.64a5,5,0,0,1-4.12-2.43,8,8,0,0,1-1-5.11,5.4,5.4,0,0,1,.79-2.41,6.22,6.22,0,0,1,2.73-2,8.86,8.86,0,0,1,4.59-1.05h0a4.61,4.61,0,0,1,3.64,2.57,6.47,6.47,0,0,1,0,5.86,9.75,9.75,0,0,1-3.93,3.7,6.18,6.18,0,0,1-2.17.81A3.23,3.23,0,0,1,102.67,67.64Zm2.43-12a9,9,0,0,0-3.57,1,5.34,5.34,0,0,0-2.32,1.63,4.32,4.32,0,0,0-.62,2,7,7,0,0,0,.8,4.46,4,4,0,0,0,3.67,1.93,5.39,5.39,0,0,0,1.82-.69,8.81,8.81,0,0,0,3.55-3.31,5.46,5.46,0,0,0,0-4.92,3.6,3.6,0,0,0-2.87-2h0A4,4,0,0,0,105.1,55.63Z" fill="#231f20"></path></g></svg>